<svg width="55" height="48" viewBox="0 0 55 48" fill="none" xmlns="http://www.w3.org/2000/svg">
<path d="M4.74432 14.1818C3.96402 14.1818 3.28409 13.9867 2.70455 13.5966C2.12879 13.2064 1.68182 12.6723 1.36364 11.9943C1.04545 11.3163 0.886364 10.5436 0.886364 9.67614C0.886364 8.80114 1.04735 8.02273 1.36932 7.34091C1.69508 6.65909 2.14583 6.125 2.72159 5.73864C3.29735 5.34848 3.96591 5.15341 4.72727 5.15341C5.31061 5.15341 5.83902 5.26705 6.3125 5.49432C6.78598 5.7178 7.17614 6.03409 7.48295 6.44318C7.79356 6.84848 7.98864 7.32197 8.06818 7.86364H7.04545C6.93939 7.37121 6.68371 6.95076 6.27841 6.60227C5.87689 6.25 5.36553 6.07386 4.74432 6.07386C4.1875 6.07386 3.69508 6.22538 3.26705 6.52841C2.83902 6.82765 2.50379 7.24621 2.26136 7.78409C2.02273 8.31818 1.90341 8.9375 1.90341 9.64205C1.90341 10.3504 2.02083 10.9773 2.25568 11.5227C2.49053 12.0644 2.82008 12.4886 3.24432 12.7955C3.67235 13.1023 4.17235 13.2557 4.74432 13.2557C5.13068 13.2557 5.48295 13.1837 5.80114 13.0398C6.12311 12.892 6.39205 12.6837 6.60795 12.4148C6.82765 12.1458 6.97538 11.8258 7.05114 11.4545H8.07386C7.99811 11.9811 7.81061 12.4508 7.51136 12.8636C7.21591 13.2727 6.83144 13.5947 6.35795 13.8295C5.88826 14.0644 5.35038 14.1818 4.74432 14.1818ZM10.2415 14V5.27273H11.2528V9.19886H12.2017L15.446 5.27273H16.7528L13.2528 9.47159L16.8324 14H15.5256L12.5142 10.1534H11.2528V14H10.2415ZM18.4915 17.2727V5.27273H19.4744V6.9375H19.5938C19.715 6.67614 19.8816 6.40909 20.0938 6.13636C20.3059 5.85985 20.5862 5.62689 20.9347 5.4375C21.2869 5.24811 21.7301 5.15341 22.2642 5.15341C22.9839 5.15341 23.6127 5.3428 24.1506 5.72159C24.6922 6.09659 25.1127 6.62311 25.4119 7.30114C25.715 7.97538 25.8665 8.76136 25.8665 9.65909C25.8665 10.5606 25.715 11.3504 25.4119 12.0284C25.1127 12.7064 24.6922 13.2348 24.1506 13.6136C23.6127 13.9924 22.9877 14.1818 22.2756 14.1818C21.7491 14.1818 21.3078 14.0871 20.9517 13.8977C20.5994 13.7083 20.3134 13.4754 20.0938 13.1989C19.8778 12.9186 19.7112 12.6458 19.5938 12.3807H19.5028V17.2727H18.4915ZM19.4915 9.64205C19.4915 10.3466 19.5956 10.9716 19.804 11.517C20.0161 12.0587 20.3191 12.4848 20.7131 12.7955C21.1108 13.1023 21.5919 13.2557 22.1562 13.2557C22.7358 13.2557 23.2244 13.0966 23.6222 12.7784C24.0237 12.4564 24.3286 12.0227 24.5369 11.4773C24.7491 10.9318 24.8551 10.3201 24.8551 9.64205C24.8551 8.97159 24.7509 8.36742 24.5426 7.82955C24.3381 7.29167 24.035 6.86553 23.6335 6.55114C23.232 6.23295 22.7396 6.07386 22.1562 6.07386C21.5881 6.07386 21.1051 6.22727 20.7074 6.53409C20.3097 6.83712 20.0066 7.25758 19.7983 7.79545C19.5938 8.32955 19.4915 8.94508 19.4915 9.64205ZM31.4773 14.1818C30.7235 14.1818 30.0568 13.9905 29.4773 13.608C28.9015 13.2254 28.4508 12.697 28.125 12.0227C27.7992 11.3447 27.6364 10.5625 27.6364 9.67614C27.6364 8.7822 27.7992 7.99621 28.125 7.31818C28.4508 6.63636 28.9015 6.10606 29.4773 5.72727C30.0568 5.3447 30.7235 5.15341 31.4773 5.15341C32.2311 5.15341 32.8958 5.3447 33.4716 5.72727C34.0473 6.10985 34.4981 6.64015 34.8239 7.31818C35.1534 7.99621 35.3182 8.7822 35.3182 9.67614C35.3182 10.5625 35.1553 11.3447 34.8295 12.0227C34.5038 12.697 34.0511 13.2254 33.4716 13.608C32.8958 13.9905 32.2311 14.1818 31.4773 14.1818ZM31.4773 13.2557C32.0833 13.2557 32.5966 13.0928 33.017 12.767C33.4375 12.4413 33.7557 12.0076 33.9716 11.4659C34.1913 10.9242 34.3011 10.3277 34.3011 9.67614C34.3011 9.02462 34.1913 8.42614 33.9716 7.88068C33.7557 7.33523 33.4375 6.89773 33.017 6.56818C32.5966 6.23864 32.0833 6.07386 31.4773 6.07386C30.875 6.07386 30.3617 6.23864 29.9375 6.56818C29.517 6.89773 29.197 7.33523 28.9773 7.88068C28.7614 8.42614 28.6534 9.02462 28.6534 9.67614C28.6534 10.3277 28.7614 10.9242 28.9773 11.4659C29.197 12.0076 29.517 12.4413 29.9375 12.767C30.358 13.0928 30.8712 13.2557 31.4773 13.2557ZM36.6804 14V13.0455H36.9531C37.2637 13.0455 37.5137 12.9886 37.7031 12.875C37.8963 12.7576 38.0459 12.5606 38.152 12.2841C38.258 12.0076 38.3376 11.6307 38.3906 11.1534C38.4437 10.6761 38.4853 10.0777 38.5156 9.35795L38.7031 5.27273H44.2486V14H43.2315V6.22727H39.6634L39.4986 9.69886C39.4645 10.4072 39.4077 11.0303 39.3281 11.5682C39.2524 12.1061 39.1274 12.5549 38.9531 12.9148C38.7827 13.2746 38.544 13.5455 38.2372 13.7273C37.9342 13.9091 37.5365 14 37.044 14H36.6804ZM46.071 14V13.0455H46.3438C46.6544 13.0455 46.9044 12.9886 47.0938 12.875C47.2869 12.7576 47.4366 12.5606 47.5426 12.2841C47.6487 12.0076 47.7282 11.6307 47.7812 11.1534C47.8343 10.6761 47.8759 10.0777 47.9062 9.35795L48.0938 5.27273H53.6392V14H52.6222V6.22727H49.054L48.8892 9.69886C48.8551 10.4072 48.7983 11.0303 48.7188 11.5682C48.643 12.1061 48.518 12.5549 48.3438 12.9148C48.1733 13.2746 47.9347 13.5455 47.6278 13.7273C47.3248 13.9091 46.9271 14 46.4347 14H46.071ZM1.33523 30V21.2727H4.77273C5.70076 21.2727 6.43182 21.4735 6.96591 21.875C7.50379 22.2765 7.77273 22.8182 7.77273 23.5C7.77273 24.0189 7.62311 24.4337 7.32386 24.7443C7.02462 25.0549 6.62311 25.2746 6.11932 25.4034C6.45644 25.4602 6.76894 25.5833 7.05682 25.7727C7.34849 25.9621 7.58523 26.2121 7.76705 26.5227C7.94886 26.8333 8.03977 27.2045 8.03977 27.6364C8.03977 28.0909 7.92614 28.4962 7.69886 28.8523C7.47159 29.2083 7.15152 29.4886 6.73864 29.6932C6.32576 29.8977 5.83712 30 5.27273 30H1.33523ZM2.30114 29.0625H5.27273C5.80682 29.0625 6.22917 28.9261 6.53977 28.6534C6.85038 28.3769 7.00568 28.0095 7.00568 27.5511C7.00568 27.0625 6.85795 26.6723 6.5625 26.3807C6.27083 26.0852 5.87879 25.9375 5.38636 25.9375H2.30114V29.0625ZM2.30114 25.0398H4.83523C5.22917 25.0398 5.57008 24.9792 5.85795 24.858C6.14583 24.7367 6.36742 24.5663 6.52273 24.3466C6.68182 24.1231 6.75947 23.8617 6.75568 23.5625C6.75568 23.1345 6.58144 22.803 6.23295 22.5682C5.88447 22.3295 5.39773 22.2102 4.77273 22.2102H2.30114V25.0398ZM16.1491 25.1648V26.1193H11.0185V25.1648H16.1491ZM11.2685 21.2727V30H10.2571V21.2727H11.2685ZM16.8935 21.2727V30H15.8821V21.2727H16.8935ZM20.5966 28.5625L25.2045 21.2727H26.4148V30H25.4034V22.7102L20.8125 30H19.5852V21.2727H20.5966V28.5625ZM28.5227 27.7727H29.5966C29.6269 28.2386 29.8277 28.6023 30.1989 28.8636C30.5701 29.125 31.0587 29.2557 31.6648 29.2557C32.2936 29.2557 32.8125 29.1155 33.2216 28.8352C33.6307 28.5511 33.8352 28.1383 33.8352 27.5966C33.8352 27.267 33.7576 26.9811 33.6023 26.7386C33.4508 26.4962 33.2424 26.3068 32.9773 26.1705C32.7159 26.0303 32.4186 25.9583 32.0852 25.9545H30.5625V25.0284H32.0682C32.5871 24.9981 32.9811 24.858 33.25 24.608C33.5189 24.3542 33.6534 24.0227 33.6534 23.6136C33.6534 23.1477 33.4886 22.7746 33.1591 22.4943C32.8295 22.2102 32.3826 22.0682 31.8182 22.0682C31.2462 22.0682 30.7708 22.2083 30.392 22.4886C30.0133 22.7689 29.8125 23.1288 29.7898 23.5682H28.7273C28.7462 23.0947 28.8883 22.678 29.1534 22.3182C29.4186 21.9545 29.7765 21.6705 30.2273 21.4659C30.6818 21.2614 31.197 21.1591 31.7727 21.1591C32.3636 21.1591 32.8769 21.2652 33.3125 21.4773C33.7481 21.6894 34.0852 21.9792 34.3239 22.3466C34.5625 22.7102 34.6818 23.1231 34.6818 23.5852C34.6818 24.0663 34.5492 24.4621 34.2841 24.7727C34.0227 25.0795 33.6875 25.2955 33.2784 25.4205V25.5057C33.589 25.5398 33.8617 25.6534 34.0966 25.8466C34.3352 26.0398 34.5227 26.2879 34.6591 26.5909C34.7955 26.8939 34.8636 27.2292 34.8636 27.5966C34.8636 28.1117 34.7292 28.5644 34.4602 28.9545C34.1913 29.3409 33.8163 29.642 33.3352 29.858C32.858 30.0739 32.3068 30.1818 31.6818 30.1818C31.0795 30.1818 30.5436 30.0814 30.0739 29.8807C29.6042 29.6761 29.2311 29.3939 28.9545 29.0341C28.6818 28.6705 28.5379 28.25 28.5227 27.7727Z" fill="#BCBCBC"/>
<path d="M1 37L18.2537 47M35 37L17.7463 47" stroke="#BCBCBC"/>
</svg>
