<svg width="35" height="35" viewBox="0 0 35 35" fill="none" xmlns="http://www.w3.org/2000/svg">
<rect width="35" height="35" rx="4" fill="white" fill-opacity="0.2"/>
<path d="M25 9.38095C25 8.74948 24.7542 8.14388 24.3166 7.69736C23.879 7.25085 23.2855 7 22.6667 7H13.3333C12.7145 7 12.121 7.25085 11.6834 7.69736C11.2458 8.14388 11 8.74948 11 9.38095V24.619C11 25.2505 11.2458 25.8561 11.6834 26.3026C12.121 26.7492 12.7145 27 13.3333 27H22.6667C23.2855 27 23.879 26.7492 24.3166 26.3026C24.7542 25.8561 25 25.2505 25 24.619V9.38095ZM24.0667 9.38095V24.619C24.0659 24.9977 23.9182 25.3606 23.6558 25.6284C23.3934 25.8961 23.0377 26.0469 22.6667 26.0476H13.3333C12.9623 26.0469 12.6066 25.8961 12.3442 25.6284C12.0818 25.3606 11.9341 24.9977 11.9333 24.619V9.38095C11.9341 9.0023 12.0818 8.63938 12.3442 8.37163C12.6066 8.10389 12.9623 7.95314 13.3333 7.95238H22.6667C23.0377 7.95314 23.3934 8.10389 23.6558 8.37163C23.9182 8.63938 24.0659 9.0023 24.0667 9.38095Z" fill="white"/>
<path d="M22.6667 9.85717C22.6667 9.73088 22.6175 9.60976 22.53 9.52045C22.4425 9.43115 22.3238 9.38098 22.2 9.38098H13.8C13.6763 9.38098 13.5576 9.43115 13.4701 9.52045C13.3825 9.60976 13.3334 9.73088 13.3334 9.85717V13.6667C13.3334 13.793 13.3825 13.9141 13.4701 14.0034C13.5576 14.0927 13.6763 14.1429 13.8 14.1429H22.2C22.3238 14.1429 22.4425 14.0927 22.53 14.0034C22.6175 13.9141 22.6667 13.793 22.6667 13.6667V9.85717ZM21.7334 10.3334V13.1905H14.2667V10.3334H21.7334ZM13.8 17.4762H14.7334C14.8571 17.4762 14.9758 17.4261 15.0634 17.3367C15.1509 17.2474 15.2 17.1263 15.2 17C15.2 16.8737 15.1509 16.7526 15.0634 16.6633C14.9758 16.574 14.8571 16.5238 14.7334 16.5238H13.8C13.6763 16.5238 13.5576 16.574 13.4701 16.6633C13.3825 16.7526 13.3334 16.8737 13.3334 17C13.3334 17.1263 13.3825 17.2474 13.4701 17.3367C13.5576 17.4261 13.6763 17.4762 13.8 17.4762ZM13.8 20.8096H14.7334C14.8571 20.8096 14.9758 20.7594 15.0634 20.6701C15.1509 20.5808 15.2 20.4597 15.2 20.3334C15.2 20.2071 15.1509 20.0859 15.0634 19.9966C14.9758 19.9073 14.8571 19.8572 14.7334 19.8572H13.8C13.6763 19.8572 13.5576 19.9073 13.4701 19.9966C13.3825 20.0859 13.3334 20.2071 13.3334 20.3334C13.3334 20.4597 13.3825 20.5808 13.4701 20.6701C13.5576 20.7594 13.6763 20.8096 13.8 20.8096ZM13.8 24.1429H14.7334C14.8571 24.1429 14.9758 24.0927 15.0634 24.0034C15.1509 23.9141 15.2 23.793 15.2 23.6667C15.2 23.5404 15.1509 23.4193 15.0634 23.33C14.9758 23.2407 14.8571 23.1905 14.7334 23.1905H13.8C13.6763 23.1905 13.5576 23.2407 13.4701 23.33C13.3825 23.4193 13.3334 23.5404 13.3334 23.6667C13.3334 23.793 13.3825 23.9141 13.4701 24.0034C13.5576 24.0927 13.6763 24.1429 13.8 24.1429ZM17.5334 17.4762H18.4667C18.5905 17.4762 18.7092 17.4261 18.7967 17.3367C18.8842 17.2474 18.9334 17.1263 18.9334 17C18.9334 16.8737 18.8842 16.7526 18.7967 16.6633C18.7092 16.574 18.5905 16.5238 18.4667 16.5238H17.5334C17.4096 16.5238 17.2909 16.574 17.2034 16.6633C17.1159 16.7526 17.0667 16.8737 17.0667 17C17.0667 17.1263 17.1159 17.2474 17.2034 17.3367C17.2909 17.4261 17.4096 17.4762 17.5334 17.4762ZM17.5334 20.8096H18.4667C18.5905 20.8096 18.7092 20.7594 18.7967 20.6701C18.8842 20.5808 18.9334 20.4597 18.9334 20.3334C18.9334 20.2071 18.8842 20.0859 18.7967 19.9966C18.7092 19.9073 18.5905 19.8572 18.4667 19.8572H17.5334C17.4096 19.8572 17.2909 19.9073 17.2034 19.9966C17.1159 20.0859 17.0667 20.2071 17.0667 20.3334C17.0667 20.4597 17.1159 20.5808 17.2034 20.6701C17.2909 20.7594 17.4096 20.8096 17.5334 20.8096ZM17.5334 24.1429H18.4667C18.5905 24.1429 18.7092 24.0927 18.7967 24.0034C18.8842 23.9141 18.9334 23.793 18.9334 23.6667C18.9334 23.5404 18.8842 23.4193 18.7967 23.33C18.7092 23.2407 18.5905 23.1905 18.4667 23.1905H17.5334C17.4096 23.1905 17.2909 23.2407 17.2034 23.33C17.1159 23.4193 17.0667 23.5404 17.0667 23.6667C17.0667 23.793 17.1159 23.9141 17.2034 24.0034C17.2909 24.0927 17.4096 24.1429 17.5334 24.1429ZM21.2667 17.4762H22.2C22.3238 17.4762 22.4425 17.4261 22.53 17.3367C22.6175 17.2474 22.6667 17.1263 22.6667 17C22.6667 16.8737 22.6175 16.7526 22.53 16.6633C22.4425 16.574 22.3238 16.5238 22.2 16.5238H21.2667C21.1429 16.5238 21.0242 16.574 20.9367 16.6633C20.8492 16.7526 20.8 16.8737 20.8 17C20.8 17.1263 20.8492 17.2474 20.9367 17.3367C21.0242 17.4261 21.1429 17.4762 21.2667 17.4762ZM21.2667 20.8096H22.2C22.3238 20.8096 22.4425 20.7594 22.53 20.6701C22.6175 20.5808 22.6667 20.4597 22.6667 20.3334C22.6667 20.2071 22.6175 20.0859 22.53 19.9966C22.4425 19.9073 22.3238 19.8572 22.2 19.8572H21.2667C21.1429 19.8572 21.0242 19.9073 20.9367 19.9966C20.8492 20.0859 20.8 20.2071 20.8 20.3334C20.8 20.4597 20.8492 20.5808 20.9367 20.6701C21.0242 20.7594 21.1429 20.8096 21.2667 20.8096ZM21.2667 24.1429H22.2C22.3238 24.1429 22.4425 24.0927 22.53 24.0034C22.6175 23.9141 22.6667 23.793 22.6667 23.6667C22.6667 23.5404 22.6175 23.4193 22.53 23.33C22.4425 23.2407 22.3238 23.1905 22.2 23.1905H21.2667C21.1429 23.1905 21.0242 23.2407 20.9367 23.33C20.8492 23.4193 20.8 23.5404 20.8 23.6667C20.8 23.793 20.8492 23.9141 20.9367 24.0034C21.0242 24.0927 21.1429 24.1429 21.2667 24.1429Z" fill="white"/>
</svg>
