<svg width="124" height="50" viewBox="0 0 124 50" fill="none" xmlns="http://www.w3.org/2000/svg">
<path d="M124 33.0697V34.7481L110.968 34.7482C110.968 34.7482 107.343 34.5513 104.644 33.0697C101.945 31.5881 101.945 31.4043 100.789 30.2594L104.374 25.8098C107.279 28.3859 109.965 29.6739 112.433 29.6739C113.538 29.6739 114.399 29.4397 115.016 28.9714C115.659 28.4769 115.98 27.8264 115.98 27.0198C115.98 26.1871 115.646 25.5365 114.978 25.0682C114.309 24.5738 112.985 24.0794 111.006 23.585C107.87 22.8303 105.57 21.8545 104.104 20.6576C102.665 19.4346 101.945 17.535 101.945 14.9589C101.945 12.3568 102.858 10.3532 104.683 8.94802C106.534 7.54287 108.834 6.8403 111.585 6.8403C113.384 6.8403 115.183 7.15256 116.983 7.77707C118.782 8.40157 120.35 9.2863 121.687 10.4312L118.641 14.8809C116.301 13.0854 113.885 12.1877 111.392 12.1877C110.389 12.1877 109.592 12.4349 109.001 12.9293C108.436 13.3977 108.153 14.0352 108.153 14.8418C108.153 15.6225 108.5 16.247 109.194 16.7154C109.914 17.1837 111.546 17.7432 114.091 18.3937C116.661 19.0182 118.653 19.968 120.067 21.243C121.481 22.5181 122.188 24.2875 122.188 26.5514C122.188 29.3617 121.147 31.5344 119.065 33.0697H124Z" fill="white"/>
<path d="M23.9055 32.4843V34.1626H0.000113071L0 6.87937H10.4876C12.3126 6.87937 13.8806 7.10055 15.1915 7.54291C16.5282 7.98527 17.5307 8.58376 18.199 9.33838C19.4071 10.7435 20.0112 12.3308 20.0112 14.1003C20.0112 16.234 19.33 17.8213 17.9677 18.8621C17.505 19.2264 17.1837 19.4606 17.0037 19.5647C16.8238 19.6428 16.5025 19.7859 16.0398 19.9941C17.7106 20.3584 19.0344 21.126 20.0112 22.2969C21.0137 23.4419 21.5149 24.873 21.5149 26.5904C21.5149 29.1665 20.5124 31.1312 18.5075 32.4843H23.9055ZM6.01492 29.0104H10.1405C11.8628 29.0104 13.148 28.8023 13.9963 28.3859C14.8702 27.9436 15.3072 27.0979 15.3072 25.8488C15.3072 24.5738 14.8445 23.7411 13.9191 23.3508C13.0195 22.9345 11.5672 22.7263 9.56219 22.7263H6.01492V29.0104ZM6.01492 17.9254H8.86816C10.539 17.9254 11.7728 17.7432 12.5696 17.3789C13.3922 17.0146 13.8035 16.234 13.8035 15.037C13.8035 13.814 13.4308 13.0074 12.6853 12.6171C11.9399 12.2267 10.6803 12.0316 8.90671 12.0316H6.01492V17.9254Z" fill="white"/>
<path d="M60.1878 32.4843V34.1626H50.0472L47.541 28.2688H36.2437L33.7375 34.1626H23.597V32.4843H28.0311L38.9813 6.87937H44.8034L55.7151 32.4843H60.1878ZM41.9117 14.998L38.5186 22.9215H45.2661L41.9117 14.998Z" fill="white"/>
<path d="M78.0398 32.4841C76.4975 33.733 71.8707 34.1626 71.8707 34.1626L58.3757 34.1625V32.4841H63.6194C62.2057 31.7555 60.9204 30.8188 59.7637 29.6738L63.3495 25.2242C66.2542 27.8003 68.9403 29.0884 71.408 29.0884C72.5133 29.0884 73.3744 28.8542 73.9913 28.3858C74.6339 27.8914 74.9552 27.2408 74.9552 26.4342C74.9552 25.6015 74.6211 24.951 73.9528 24.4826C73.2844 23.9882 71.9606 23.4938 69.9814 22.9994C66.8454 22.2448 64.5448 21.269 63.0796 20.072C61.6402 18.849 60.9204 16.9494 60.9204 14.3733C60.9204 11.7712 61.833 9.76759 63.658 8.36245C65.5087 6.9573 67.8093 6.25473 70.5597 6.25473C72.3591 6.25473 74.1584 6.56698 75.9577 7.19149C77.7571 7.816 79.3251 8.70072 80.6617 9.84566L77.6157 14.2953C75.2766 12.4998 72.8603 11.6021 70.3669 11.6021C69.3645 11.6021 68.5676 11.8493 67.9764 12.3437C67.4109 12.8121 67.1281 13.4496 67.1281 14.2563C67.1281 15.0369 67.4752 15.6614 68.1692 16.1298C68.8889 16.5982 70.5212 17.1576 73.0659 17.8082C75.6364 18.4327 77.6286 19.3824 79.0423 20.6575C80.4561 21.9325 81.163 23.702 81.163 25.9658C81.163 28.7761 79.5821 31.2352 78.0398 32.4841Z" fill="white"/>
<path d="M87.2936 7.27723L91.1493 9.89877L95.005 7.27723V32.444L91.1493 36.1142L87.2936 32.444V7.27723Z" fill="white"/>
<path d="M87.2936 3.18107L91.1493 0L95.005 3.18107L91.1493 6.25473L87.2936 3.18107Z" fill="white"/>
<path d="M4.57494 44.723H5.6811C5.65305 45.3233 5.53081 45.8416 5.31438 46.2779C5.10197 46.7101 4.79136 47.0423 4.38256 47.2744C3.97777 47.5066 3.47078 47.6226 2.86159 47.6226C2.42474 47.6226 2.02997 47.5366 1.67728 47.3645C1.32459 47.1924 1.022 46.9463 0.769504 46.6261C0.521018 46.3019 0.330646 45.9137 0.198388 45.4614C0.0661292 45.0091 0 44.5009 0 43.9365V42.3216C0 41.7613 0.0661292 41.255 0.198388 40.8027C0.334654 40.3505 0.529034 39.9643 0.781527 39.6441C1.03803 39.3199 1.34864 39.0718 1.71335 38.8997C2.08207 38.7276 2.49888 38.6415 2.96379 38.6415C3.5329 38.6415 4.01384 38.7556 4.40661 38.9837C4.80339 39.2078 5.10798 39.538 5.3204 39.9743C5.53682 40.4065 5.65705 40.9368 5.6811 41.5652H4.57494C4.54688 41.1049 4.47474 40.7307 4.35852 40.4425C4.24229 40.1504 4.06995 39.9363 3.84151 39.8002C3.61707 39.6601 3.3245 39.5901 2.96379 39.5901C2.64316 39.5901 2.36462 39.6541 2.12816 39.7822C1.8957 39.9102 1.70333 40.0943 1.55103 40.3345C1.40274 40.5706 1.29052 40.8568 1.21437 41.193C1.14223 41.5252 1.10616 41.8974 1.10616 42.3096V43.9365C1.10616 44.3208 1.13622 44.679 1.19634 45.0112C1.26046 45.3433 1.36066 45.6355 1.49692 45.8877C1.6372 46.1358 1.81956 46.3299 2.04399 46.47C2.26843 46.6101 2.54096 46.6801 2.86159 46.6801C3.26638 46.6801 3.58701 46.6141 3.82347 46.482C4.05993 46.3499 4.23427 46.1398 4.34649 45.8516C4.46272 45.5635 4.53887 45.1873 4.57494 44.723Z" fill="white"/>
<path d="M9.37231 41.0069V47.5026H8.30823V41.0069H9.37231ZM11.1458 41.0069V41.9074H6.55882V41.0069H11.1458Z" fill="white"/>
<path d="M13.3401 42.2556V50H12.276V41.0069H13.2439L13.3401 42.2556ZM16.9772 43.9606V44.5669C16.9772 45.0792 16.9291 45.5274 16.8329 45.9117C16.7407 46.2919 16.6024 46.6101 16.4181 46.8662C16.2377 47.1184 16.0153 47.3085 15.7508 47.4365C15.4863 47.5606 15.1837 47.6226 14.843 47.6226C14.5023 47.6226 14.2058 47.5586 13.9533 47.4305C13.7048 47.2985 13.4944 47.1083 13.322 46.8602C13.1537 46.6121 13.0194 46.3139 12.9192 45.9657C12.8231 45.6135 12.7569 45.2193 12.7209 44.783V43.8585C12.7569 43.3982 12.8231 42.986 12.9192 42.6218C13.0154 42.2536 13.1477 41.9414 13.316 41.6852C13.4884 41.4251 13.6988 41.227 13.9473 41.0909C14.1997 40.9548 14.4943 40.8868 14.831 40.8868C15.1797 40.8868 15.4863 40.9468 15.7508 41.0669C16.0193 41.187 16.2437 41.3731 16.4241 41.6252C16.6085 41.8734 16.7467 42.1915 16.8389 42.5798C16.9311 42.964 16.9772 43.4242 16.9772 43.9606ZM15.9131 44.5669V43.9606C15.9131 43.6003 15.885 43.2862 15.8289 43.018C15.7768 42.7499 15.6927 42.5277 15.5764 42.3516C15.4602 42.1755 15.3139 42.0435 15.1376 41.9554C14.9612 41.8674 14.7488 41.8233 14.5003 41.8233C14.2879 41.8233 14.0995 41.8674 13.9352 41.9554C13.7749 42.0435 13.6366 42.1635 13.5204 42.3156C13.4042 42.4637 13.308 42.6338 13.2319 42.8259C13.1557 43.014 13.0996 43.2101 13.0635 43.4142V45.2333C13.1317 45.4894 13.2218 45.7316 13.3341 45.9597C13.4463 46.1838 13.5966 46.3659 13.7849 46.506C13.9773 46.6461 14.2198 46.7161 14.5124 46.7161C14.7568 46.7161 14.9672 46.6721 15.1436 46.584C15.3199 46.496 15.4642 46.3639 15.5764 46.1878C15.6927 46.0077 15.7768 45.7836 15.8289 45.5154C15.885 45.2433 15.9131 44.9271 15.9131 44.5669Z" fill="white"/>
<path d="M18.1254 44.5669V43.9485C18.1254 43.4443 18.1895 43.002 18.3178 42.6218C18.446 42.2376 18.6244 41.9174 18.8528 41.6612C19.0813 41.4051 19.3478 41.213 19.6524 41.0849C19.957 40.9528 20.2836 40.8868 20.6323 40.8868C20.989 40.8868 21.3197 40.9528 21.6243 41.0849C21.9288 41.213 22.1954 41.4051 22.4238 41.6612C22.6563 41.9174 22.8366 42.2376 22.9649 42.6218C23.0931 43.002 23.1572 43.4443 23.1572 43.9485V44.5669C23.1572 45.0712 23.0931 45.5154 22.9649 45.8997C22.8366 46.2799 22.6583 46.5981 22.4298 46.8542C22.2014 47.1104 21.9349 47.3025 21.6303 47.4305C21.3257 47.5586 20.997 47.6226 20.6443 47.6226C20.2916 47.6226 19.963 47.5586 19.6584 47.4305C19.3538 47.3025 19.0853 47.1104 18.8528 46.8542C18.6244 46.5981 18.446 46.2799 18.3178 45.8997C18.1895 45.5154 18.1254 45.0712 18.1254 44.5669ZM19.1895 43.9485V44.5669C19.1895 44.9231 19.2256 45.2353 19.2977 45.5034C19.3698 45.7716 19.472 45.9957 19.6043 46.1758C19.7366 46.3559 19.8909 46.492 20.0672 46.584C20.2436 46.6721 20.4359 46.7161 20.6443 46.7161C20.8848 46.7161 21.0952 46.6721 21.2756 46.584C21.4599 46.492 21.6122 46.3559 21.7325 46.1758C21.8527 45.9957 21.9429 45.7716 22.003 45.5034C22.0631 45.2353 22.0932 44.9231 22.0932 44.5669V43.9485C22.0932 43.5923 22.0571 43.2822 21.985 43.018C21.9128 42.7499 21.8106 42.5257 21.6784 42.3456C21.5461 42.1615 21.3898 42.0254 21.2094 41.9374C21.0331 41.8453 20.8407 41.7993 20.6323 41.7993C20.4279 41.7993 20.2375 41.8453 20.0612 41.9374C19.8849 42.0254 19.7306 42.1615 19.5983 42.3456C19.47 42.5257 19.3698 42.7499 19.2977 43.018C19.2256 43.2822 19.1895 43.5923 19.1895 43.9485Z" fill="white"/>
<path d="M25.6822 45.7436L28.0388 41.0069H29.1029V47.5026H28.0388V42.7659L25.6822 47.5026H24.6241V41.0069H25.6822V45.7436Z" fill="white"/>
<path d="M33.1428 41.0069V47.5026H32.0787V41.0069H33.1428ZM34.9162 41.0069V41.9074H30.3293V41.0069H34.9162Z" fill="white"/>
<path d="M37.892 47.6226C37.5033 47.6226 37.1526 47.5646 36.84 47.4485C36.5274 47.3325 36.2609 47.1564 36.0404 46.9202C35.82 46.6801 35.6517 46.3779 35.5354 46.0137C35.4192 45.6495 35.3611 45.2193 35.3611 44.723V43.9906C35.3611 43.4182 35.4272 42.934 35.5595 42.5377C35.6957 42.1415 35.8781 41.8233 36.1065 41.5832C36.335 41.3391 36.5935 41.163 36.8821 41.0549C37.1706 40.9428 37.4672 40.8868 37.7718 40.8868C38.1806 40.8868 38.5293 40.9528 38.8178 41.0849C39.1064 41.217 39.3409 41.4131 39.5212 41.6732C39.7016 41.9334 39.8338 42.2536 39.918 42.6338C40.0062 43.014 40.0503 43.4523 40.0503 43.9485V44.5669H35.9863V43.6604H38.9862V43.5103C38.9701 43.1741 38.9241 42.8779 38.8479 42.6218C38.7758 42.3656 38.6555 42.1655 38.4872 42.0214C38.3189 41.8734 38.0804 41.7993 37.7718 41.7993C37.5754 41.7993 37.3931 41.8333 37.2247 41.9014C37.0604 41.9654 36.9181 42.0795 36.7979 42.2436C36.6817 42.4037 36.5895 42.6258 36.5214 42.9099C36.4572 43.1941 36.4252 43.5543 36.4252 43.9906V44.723C36.4252 45.0712 36.4572 45.3714 36.5214 45.6235C36.5895 45.8716 36.6877 46.0778 36.8159 46.2419C36.9482 46.4019 37.1085 46.522 37.2969 46.6021C37.4893 46.6781 37.7077 46.7161 37.9522 46.7161C38.3089 46.7161 38.6034 46.6481 38.8359 46.512C39.0683 46.3719 39.2707 46.1938 39.4431 45.9777L40.0022 46.6441C39.8859 46.8082 39.7336 46.9663 39.5453 47.1184C39.3609 47.2664 39.1325 47.3885 38.8599 47.4846C38.5914 47.5766 38.2688 47.6226 37.892 47.6226Z" fill="white"/>
<path d="M44.9679 41.0069V41.9254H42.3768V41.0069H44.9679ZM45.9177 41.0069V47.5026H44.8597V41.0069H45.9177ZM42.1243 41.0069H43.1884L43.0381 44.1407C43.014 44.6249 42.974 45.0532 42.9179 45.4254C42.8658 45.7936 42.7916 46.1098 42.6954 46.3739C42.6032 46.6381 42.487 46.8542 42.3467 47.0223C42.2105 47.1864 42.0462 47.3085 41.8538 47.3885C41.6654 47.4646 41.447 47.5026 41.1985 47.5026H40.8799V46.524L41.0903 46.506C41.2306 46.494 41.3508 46.454 41.451 46.3859C41.5552 46.3179 41.6394 46.2178 41.7035 46.0858C41.7716 45.9497 41.8257 45.7756 41.8658 45.5635C41.9099 45.3513 41.944 45.0992 41.968 44.807C41.992 44.5149 42.0101 44.1747 42.0221 43.7865L42.1243 41.0069Z" fill="white"/>
<path d="M48.5148 43.2401H50.1019C50.5508 43.2401 50.9275 43.3322 51.2321 43.5163C51.5367 43.6964 51.7671 43.9465 51.9235 44.2667C52.0798 44.5829 52.1579 44.9431 52.1579 45.3473C52.1579 45.6475 52.1138 45.9297 52.0257 46.1938C51.9375 46.454 51.8052 46.6821 51.6289 46.8782C51.4565 47.0743 51.2421 47.2284 50.9856 47.3405C50.7331 47.4485 50.4386 47.5026 50.1019 47.5026H47.7212V41.0069H48.7793V46.5901H50.1019C50.3504 46.5901 50.5468 46.532 50.691 46.416C50.8353 46.2999 50.9375 46.1498 50.9976 45.9657C51.0618 45.7816 51.0938 45.5895 51.0938 45.3894C51.0938 45.1933 51.0618 45.0011 50.9976 44.813C50.9375 44.6249 50.8353 44.4688 50.691 44.3448C50.5468 44.2167 50.3504 44.1527 50.1019 44.1527H48.5148V43.2401Z" fill="white"/>
<path d="M57.2198 43.8225V44.723H54.4604V43.8225H57.2198ZM54.6768 41.0069V47.5026H53.6128V41.0069H54.6768ZM58.0855 41.0069V47.5026H57.0214V41.0069H58.0855Z" fill="white"/>
<path d="M62.967 46.3919V42.8679C62.967 42.6118 62.927 42.4057 62.8468 42.2496C62.7706 42.0935 62.6544 41.9794 62.4981 41.9074C62.3458 41.8353 62.1534 41.7993 61.921 41.7993C61.6965 41.7993 61.5022 41.8453 61.3378 41.9374C61.1775 42.0294 61.0533 42.1515 60.9651 42.3036C60.881 42.4557 60.8389 42.6238 60.8389 42.8079H59.7748C59.7748 42.5758 59.8249 42.3456 59.9251 42.1175C60.0293 41.8894 60.1776 41.6832 60.37 41.4991C60.5623 41.311 60.7928 41.163 61.0613 41.0549C61.3338 40.9428 61.6384 40.8868 61.9751 40.8868C62.3759 40.8868 62.7306 40.9528 63.0392 41.0849C63.3478 41.213 63.5902 41.4231 63.7666 41.7153C63.9429 42.0074 64.0311 42.3957 64.0311 42.8799V46.0858C64.0311 46.3019 64.0471 46.532 64.0792 46.7762C64.1153 47.0203 64.1654 47.2304 64.2295 47.4065V47.5026H63.1293C63.0772 47.3745 63.0372 47.2044 63.0091 46.9923C62.9811 46.7762 62.967 46.576 62.967 46.3919ZM63.1354 43.5643L63.1474 44.3448H62.4079C62.1554 44.3448 61.925 44.3728 61.7166 44.4288C61.5122 44.4848 61.3358 44.5669 61.1876 44.675C61.0393 44.779 60.925 44.9091 60.8449 45.0652C60.7687 45.2213 60.7307 45.3994 60.7307 45.5995C60.7307 45.8596 60.7667 46.0678 60.8389 46.2238C60.911 46.3759 61.0192 46.486 61.1635 46.554C61.3078 46.6221 61.4901 46.6561 61.7106 46.6561C61.9791 46.6561 62.2156 46.5941 62.42 46.47C62.6244 46.3459 62.7827 46.1958 62.8949 46.0197C63.0111 45.8436 63.0652 45.6795 63.0572 45.5274L63.2917 46.0257C63.2756 46.1818 63.2235 46.3519 63.1354 46.536C63.0512 46.7161 62.933 46.8902 62.7807 47.0583C62.6284 47.2224 62.448 47.3585 62.2396 47.4666C62.0352 47.5706 61.8048 47.6226 61.5483 47.6226C61.1715 47.6226 60.8409 47.5506 60.5563 47.4065C60.2758 47.2624 60.0573 47.0503 59.901 46.7702C59.7447 46.49 59.6666 46.1438 59.6666 45.7316C59.6666 45.4194 59.7207 45.1312 59.8289 44.8671C59.9371 44.6029 60.0974 44.3748 60.3098 44.1827C60.5223 43.9866 60.7888 43.8345 61.1094 43.7264C61.434 43.6184 61.8088 43.5643 62.2336 43.5643H63.1354Z" fill="white"/>
<path d="M66.7604 44.4048H67.9027L66.2975 47.5026H65.1553L66.7604 44.4048ZM67.5961 41.0069H69.9286V47.5026H68.8706V41.9074H67.5961C67.3516 41.9074 67.1512 41.9614 66.9949 42.0695C66.8386 42.1735 66.7244 42.3096 66.6522 42.4777C66.5801 42.6458 66.544 42.8199 66.544 43C66.544 43.1761 66.5761 43.3462 66.6402 43.5103C66.7083 43.6704 66.8125 43.8025 66.9528 43.9065C67.0971 44.0106 67.2815 44.0626 67.5059 44.0626H69.1351V44.9751H67.5059C67.1853 44.9751 66.8987 44.9251 66.6462 44.825C66.3977 44.725 66.1853 44.5869 66.009 44.4108C65.8366 44.2307 65.7044 44.0206 65.6122 43.7804C65.524 43.5363 65.4799 43.2722 65.4799 42.988C65.4799 42.7038 65.526 42.4417 65.6182 42.2015C65.7144 41.9614 65.8527 41.7513 66.033 41.5712C66.2174 41.3911 66.4398 41.253 66.7003 41.1569C66.9608 41.0569 67.2594 41.0069 67.5961 41.0069Z" fill="white"/>
<path d="M75.6097 41.0069V47.5026H74.5457V41.0069H75.6097ZM79.1867 41.0069L76.5716 44.729H75.255L75.0867 43.7564H76.1388L77.9122 41.0069H79.1867ZM78.0084 47.5026L76.1027 44.5609L76.782 43.7564L79.343 47.5026H78.0084Z" fill="white"/>
<path d="M80.0103 44.5669V43.9485C80.0103 43.4443 80.0745 43.002 80.2027 42.6218C80.331 42.2376 80.5093 41.9174 80.7378 41.6612C80.9662 41.4051 81.2327 41.213 81.5373 41.0849C81.8419 40.9528 82.1686 40.8868 82.5172 40.8868C82.8739 40.8868 83.2046 40.9528 83.5092 41.0849C83.8138 41.213 84.0803 41.4051 84.3087 41.6612C84.5412 41.9174 84.7215 42.2376 84.8498 42.6218C84.978 43.002 85.0422 43.4443 85.0422 43.9485V44.5669C85.0422 45.0712 84.978 45.5154 84.8498 45.8997C84.7215 46.2799 84.5432 46.5981 84.3147 46.8542C84.0863 47.1104 83.8198 47.3025 83.5152 47.4305C83.2106 47.5586 82.8819 47.6226 82.5293 47.6226C82.1766 47.6226 81.8479 47.5586 81.5433 47.4305C81.2387 47.3025 80.9702 47.1104 80.7378 46.8542C80.5093 46.5981 80.331 46.2799 80.2027 45.8997C80.0745 45.5154 80.0103 45.0712 80.0103 44.5669ZM81.0744 43.9485V44.5669C81.0744 44.9231 81.1105 45.2353 81.1826 45.5034C81.2548 45.7716 81.357 45.9957 81.4892 46.1758C81.6215 46.3559 81.7758 46.492 81.9521 46.584C82.1285 46.6721 82.3208 46.7161 82.5293 46.7161C82.7697 46.7161 82.9801 46.6721 83.1605 46.584C83.3448 46.492 83.4971 46.3559 83.6174 46.1758C83.7376 45.9957 83.8278 45.7716 83.8879 45.5034C83.948 45.2353 83.9781 44.9231 83.9781 44.5669V43.9485C83.9781 43.5923 83.942 43.2822 83.8699 43.018C83.7977 42.7499 83.6955 42.5257 83.5633 42.3456C83.431 42.1615 83.2747 42.0254 83.0944 41.9374C82.918 41.8453 82.7256 41.7993 82.5172 41.7993C82.3128 41.7993 82.1225 41.8453 81.9461 41.9374C81.7698 42.0254 81.6155 42.1615 81.4832 42.3456C81.355 42.5257 81.2548 42.7499 81.1826 43.018C81.1105 43.2822 81.0744 43.5923 81.0744 43.9485Z" fill="white"/>
<path d="M89.6051 46.0257L91.3425 41.0069H92.3524L89.9718 47.5026H89.2384L86.8637 41.0069H87.8737L89.6051 46.0257ZM87.5671 41.0069V47.5026H86.509V41.0069H87.5671ZM91.607 47.5026V41.0069H92.6711V47.5026H91.607Z" fill="white"/>
<path d="M97.9915 41.0069V41.9254H95.3944V41.0069H97.9915ZM95.5327 41.0069V47.5026H94.4686V41.0069H95.5327ZM98.9473 41.0069V47.5026H97.8833V41.0069H98.9473Z" fill="white"/>
<path d="M103.835 46.3919V42.8679C103.835 42.6118 103.795 42.4057 103.715 42.2496C103.639 42.0935 103.522 41.9794 103.366 41.9074C103.214 41.8353 103.021 41.7993 102.789 41.7993C102.564 41.7993 102.37 41.8453 102.206 41.9374C102.045 42.0294 101.921 42.1515 101.833 42.3036C101.749 42.4557 101.707 42.6238 101.707 42.8079H100.643C100.643 42.5758 100.693 42.3456 100.793 42.1175C100.897 41.8894 101.045 41.6832 101.238 41.4991C101.43 41.311 101.661 41.163 101.929 41.0549C102.202 40.9428 102.506 40.8868 102.843 40.8868C103.244 40.8868 103.598 40.9528 103.907 41.0849C104.216 41.213 104.458 41.4231 104.634 41.7153C104.811 42.0074 104.899 42.3957 104.899 42.8799V46.0858C104.899 46.3019 104.915 46.532 104.947 46.7762C104.983 47.0203 105.033 47.2304 105.097 47.4065V47.5026H103.997C103.945 47.3745 103.905 47.2044 103.877 46.9923C103.849 46.7762 103.835 46.576 103.835 46.3919ZM104.003 43.5643L104.015 44.3448H103.276C103.023 44.3448 102.793 44.3728 102.584 44.4288C102.38 44.4848 102.204 44.5669 102.055 44.675C101.907 44.779 101.793 44.9091 101.713 45.0652C101.637 45.2213 101.599 45.3994 101.599 45.5995C101.599 45.8596 101.635 46.0678 101.707 46.2238C101.779 46.3759 101.887 46.486 102.031 46.554C102.176 46.6221 102.358 46.6561 102.578 46.6561C102.847 46.6561 103.083 46.5941 103.288 46.47C103.492 46.3459 103.651 46.1958 103.763 46.0197C103.879 45.8436 103.933 45.6795 103.925 45.5274L104.16 46.0257C104.143 46.1818 104.091 46.3519 104.003 46.536C103.919 46.7161 103.801 46.8902 103.649 47.0583C103.496 47.2224 103.316 47.3585 103.107 47.4666C102.903 47.5706 102.673 47.6226 102.416 47.6226C102.039 47.6226 101.709 47.5506 101.424 47.4065C101.144 47.2624 100.925 47.0503 100.769 46.7702C100.613 46.49 100.534 46.1438 100.534 45.7316C100.534 45.4194 100.589 45.1312 100.697 44.8671C100.805 44.6029 100.965 44.3748 101.178 44.1827C101.39 43.9866 101.657 43.8345 101.977 43.7264C102.302 43.6184 102.677 43.5643 103.101 43.5643H104.003Z" fill="white"/>
<path d="M110.255 43.8225V44.723H107.496V43.8225H110.255ZM107.712 41.0069V47.5026H106.648V41.0069H107.712ZM111.121 41.0069V47.5026H110.057V41.0069H111.121Z" fill="white"/>
<path d="M113.971 45.7436L116.327 41.0069H117.391V47.5026H116.327V42.7659L113.971 47.5026H112.913V41.0069H113.971V45.7436Z" fill="white"/>
<path d="M120.169 44.4048H121.311L119.706 47.5026H118.564L120.169 44.4048ZM121.004 41.0069H123.337V47.5026H122.279V41.9074H121.004C120.76 41.9074 120.56 41.9614 120.403 42.0695C120.247 42.1735 120.133 42.3096 120.061 42.4777C119.988 42.6458 119.952 42.8199 119.952 43C119.952 43.1761 119.984 43.3462 120.049 43.5103C120.117 43.6704 120.221 43.8025 120.361 43.9065C120.505 44.0106 120.69 44.0626 120.914 44.0626H122.543V44.9751H120.914C120.594 44.9751 120.307 44.9251 120.055 44.825C119.806 44.725 119.594 44.5869 119.417 44.4108C119.245 44.2307 119.113 44.0206 119.021 43.7804C118.932 43.5363 118.888 43.2722 118.888 42.988C118.888 42.7038 118.934 42.4417 119.027 42.2015C119.123 41.9614 119.261 41.7513 119.441 41.5712C119.626 41.3911 119.848 41.253 120.109 41.1569C120.369 41.0569 120.668 41.0069 121.004 41.0069Z" fill="white"/>
</svg>
